<?xml version="1.0" encoding="UTF-8"?>
<!DOCTYPE svg PUBLIC "-//W3C//DTD SVG 1.1//EN" "http://www.w3.org/Graphics/SVG/1.1/DTD/svg11.dtd">
<!-- Creator: CorelDRAW 2020 (64-Bit) -->
<svg xmlns="http://www.w3.org/2000/svg" xml:space="preserve" width="76.8224mm" height="84.1966mm" version="1.1" style="shape-rendering:geometricPrecision; text-rendering:geometricPrecision; image-rendering:optimizeQuality; fill-rule:evenodd; clip-rule:evenodd"
viewBox="0 0 2191.04 2401.36"
 xmlns:xlink="http://www.w3.org/1999/xlink"
 xmlns:xodm="http://www.corel.com/coreldraw/odm/2003">
 <defs>
  <style type="text/css">
   <![CDATA[
    .fil0 {fill:url(#id0)}
   ]]>
  </style>
  <linearGradient id="id0" gradientUnits="userSpaceOnUse" x1="-0" y1="1200.68" x2="2191.04" y2="1200.68">
   <stop offset="0" style="stop-opacity:1; stop-color:#4CA0D8"/>
   <stop offset="1" style="stop-opacity:1; stop-color:#1A4685"/>
  </linearGradient>
 </defs>
 <g id="Слой_x0020_1">
  <metadata id="CorelCorpID_0Corel-Layer"/>
  <path class="fil0" d="M294.81 1295.94c-71.68,29.17 -119.97,-14.61 -176.46,-31.83 -97.85,-29.83 -152.27,138.54 -95.02,205.6 183.87,215.35 167.08,-212.56 432.15,-50.28 154.93,94.85 283.45,-154.87 109.91,-250.26 -101.73,-55.92 -165.51,84.02 -270.58,126.78zm1541.04 877.78c9.44,-16.02 16.49,6.96 -20.12,43.06 -31.8,31.36 -72.48,71.71 -106.08,99.16 -8.83,7.22 -22.34,-14.6 -62.3,13.43 -14.23,9.99 -43.44,51.15 -92.46,69.48 -43.85,16.4 -17.73,-51.08 20.46,-106.61 17.51,-25.45 78.21,-108.84 110.46,-64.96 40.74,55.44 115.51,5.01 150.03,-53.56zm208.2 -269.13c-10.15,0 -26.11,6.11 -36.76,-1.63 -9.78,-7.11 -3.13,-7.75 -6.18,-17.06 -34.16,-104.09 -168.69,215.04 -122.06,206.62 53.87,-9.73 34.32,-47.57 96.54,-81.51 10.6,-5.79 62.27,-88.47 68.47,-106.42zm114.14 -402.34c-4.38,8.36 -24.34,47.74 -31.88,86.28 -15.8,80.78 -16.77,160.97 2.41,120.05 8.17,-17.43 75.43,-294.1 29.47,-206.33zm-96.12 -720.73c0.25,11.04 2.19,62.6 17.28,104.97 31.63,88.79 79.21,166.99 75.49,114.47 -1.59,-22.37 -95.47,-335.34 -92.77,-219.43zm-438.76 -542.6c17.72,22.35 138.13,125.18 151.23,130.72 3.33,1.41 47.97,29.09 39.47,15.91 -12.16,-18.85 -262.68,-237.48 -190.7,-146.64zm-284.11 -150.81c-26.66,28.63 -181.09,-32.94 -115.62,11.84 44.73,30.59 104.05,70.84 148.87,86.03 66.27,22.45 47.29,-6.25 37.09,-30.24 -5.34,-12.55 -7.91,-19.69 -2.5,-23.21 26.28,-17.11 121.34,28.98 -62.18,-48.45 -0.6,-0.25 -5.44,3.8 -5.66,4.03zm-534.34 -80.9c187.18,-33.04 498.41,59.81 252.14,33.57 -10.94,-1.16 -78,-6.24 -59.91,19.77 9.21,13.25 -4.43,20.85 -16.41,20.44 -21.23,-0.72 -79.62,-23.85 -107.57,-32.9 -29.39,-9.51 -82.04,-36.1 -68.24,-40.88zm68.15 164.72c-49.66,-8.48 -81.4,86.52 -10.53,122.43 217.89,110.4 62.6,-139.17 333.68,-53.25 108.46,34.38 88.43,-74.51 -70.76,-119.11 -102.59,-28.75 -44.96,13.48 -84.78,47.73 -25.96,22.33 -94.68,14.66 -167.6,2.2zm1191.28 1246.21c-36.92,56.82 -91.28,-36.32 -93.94,-119.08 -3.4,-105.44 30.43,-136.08 52.09,-128.59 51.38,17.76 130.6,104.39 139.24,-30.67 3.37,-52.59 12.3,-29.87 21.68,47.05 4.71,38.69 9.35,94.58 7.1,143.13 -6.02,129.74 0.92,-9.67 -53.86,-8.62 -35.7,0.69 -31.33,33.71 -72.31,96.77zm-318.08 -907.89c-65.4,-17.75 -51.38,79.48 1.8,142.95 67.76,80.87 113.39,81.15 124.55,61.14 26.46,-47.49 -10.28,-129.58 118.98,-47.54 44.49,28.24 34.34,-8.35 -9.94,-71.95 -22.27,-31.98 -55.65,-77.16 -90.12,-111.43 -72.73,-72.31 6.54,17.26 -35,52.99 -27.07,23.29 -37.68,-6.46 -110.26,-26.16zm-12.1 1433.58c51.76,-43.71 90.23,6.43 68.38,86.36 -27.81,101.76 -105.5,137.01 -131.87,110.12 -56.37,-57.47 -114.19,-35.73 -190.86,45.57 -81.42,86.33 -202.2,-7.11 -98.8,-132.92 83.13,-101.15 112.49,9.61 222.67,-13.12 49.49,-10.21 71.54,-46.24 130.48,-96.01zm295.07 -406.57c51.77,-43.73 62.99,53.86 41.13,133.79 -27.82,101.77 -56.54,120.24 -74.43,101.37 -55.39,-58.43 -96,-81.93 -188.71,44.64 -70.13,95.74 -187.38,-46.74 -83.98,-172.56 83.14,-101.16 132.37,5.4 185.96,-6.01 49.43,-10.53 61.07,-51.44 120.02,-101.23zm-729.41 -1226.15c-67.06,-9.84 -58.93,86.55 1.8,142.95 77.31,71.79 145.13,47.68 156.62,24.35 40.15,-81.49 27.68,-120.34 173.22,-61.69 110.08,44.36 70.11,-69.45 -81.67,-151.3 -90.29,-48.69 -32.13,22.91 -73.67,58.64 -27.08,23.29 -99.94,-1.75 -176.29,-12.95zm-578.54 149.83c-84.05,-12.69 -134.57,101.64 -80.88,164.79 65.06,76.52 124.37,43.91 173.6,3.6 70.29,-57.56 102.9,-113.96 251.51,-63.57 130.84,44.37 190.54,-84.08 43.86,-174.77 -81.8,-50.58 -111.73,6.55 -165.22,56.24 -69.84,64.88 -146.55,25.23 -222.87,13.71zm454.66 194.31c-101.97,-7.98 -121.37,116.73 -67.68,179.88 65.06,76.52 126.25,62.78 175.48,22.46 70.29,-57.56 122.71,-165.85 249.62,-82.44 115.46,75.88 201.86,-100.11 31.6,-201.18 -82.71,-49.09 -81.38,18.57 -134.87,68.26 -69.84,64.88 -177.2,19.03 -254.16,13.01zm-563.22 197.09c-75.76,15.74 -105.36,-11.31 -180.71,-17.21 -101.98,-7.98 -142.33,113.33 -101.63,185.54 45.25,80.3 111.15,86.36 160.39,46.04 70.3,-57.57 153.83,-183.77 280.75,-100.36 115.47,75.89 275.44,-119.92 122.15,-210.61 -82.78,-48.98 -125.04,-5.45 -178.53,44.25 -28.18,26.18 -67.48,45.09 -102.42,52.35zm1197.18 69.58c-82.55,21.15 -75.91,-33.83 -151.25,-39.72 -101.97,-7.97 -110.48,120.75 -69.78,192.97 45.25,80.3 137.53,102.76 169.82,47.93 25.02,-42.47 68.39,-164.36 190.3,-73.8 113.57,84.37 114.15,-140.84 0.33,-221.26 -104.73,-73.98 -26.02,64.83 -139.42,93.88zm-713.31 181.93c-75.76,15.74 -129.41,-20.27 -204.76,-26.17 -101.98,-7.98 -139.04,122.29 -98.33,194.51 45.26,80.3 131.91,86.36 181.14,46.04 70.3,-57.57 149.26,-176.36 280.75,-100.36 154.14,89.1 296.19,-136.9 122.15,-231.37 -84.54,-45.89 -125.04,15.3 -178.53,65 -28.18,26.18 -67.47,45.09 -102.42,52.35zm181.8 696.32c-98.44,25.27 -141.09,-14.89 -208.97,-20.21 -91.87,-7.2 -139.2,110.06 -104.63,176.35 35.68,68.42 119.55,76.87 164.14,40.78 64.18,-51.94 148.54,-157.1 264.15,-84.69 113.39,71.02 246.67,-136.76 111.09,-218.57 -89.23,-53.84 -135.7,83.21 -225.77,106.33zm318.63 -442.58c-98.44,28.01 -141.09,-16.5 -208.97,-22.4 -91.87,-7.98 -144.51,125.37 -104.63,195.45 52.66,92.56 135.58,84.15 180.17,44.16 64.18,-57.57 132.5,-173.07 248.11,-92.82 113.4,78.72 233.47,-146.35 97.88,-237.03 -89.23,-59.68 -122.49,87 -212.56,112.63zm-837.3 211.54c-75.77,15.75 -101.11,-25.93 -176.46,-31.83 -101.98,-7.99 -152.03,115.93 -107.77,186.02 58.46,92.57 131.64,86.04 181.14,46.04 71.24,-57.57 150.2,-164.1 281.69,-88.1 154.14,89.1 294.75,-148.23 121.21,-243.63 -101.72,-55.92 -198.52,110.44 -299.82,131.5z"/>
 </g>
</svg>
